<svg xmlns="http://www.w3.org/2000/svg" viewBox="0 0 240 80" width="240" height="80">
      <!-- Icon: Google Search Console -->
      <g transform="translate(15, 12)">
        <path d="M 30,30 L 15,45 C 10,40 5,30 5,20 C 5,10 12,5 20,5 Z" fill="#4285F4"/>
        <path d="M 30,30 L 45,45 C 50,40 55,30 55,20 C 55,10 48,5 40,5 Z" fill="#EA4335"/>
        <path d="M 30,30 L 30,55 C 20,55 10,50 15,45 Z" fill="#FBBC05"/>
        <path d="M 30,30 L 30,55 C 40,55 50,50 45,45 Z" fill="#34A853"/>
        <circle cx="30" cy="30" r="8" fill="#FFFFFF"/>
        <circle cx="30" cy="30" r="5" fill="#4285F4"/>
      </g>
      <!-- Text: Google Search Console -->
      <text x="85" y="38" font-family="-apple-system, BlinkMacSystemFont, 'Segoe UI', Roboto, sans-serif" font-size="20" font-weight="700" fill="#202124">Google</text>
      <text x="85" y="58" font-family="-apple-system, BlinkMacSystemFont, 'Segoe UI', Roboto, sans-serif" font-size="15" font-weight="500" fill="#5F6368">Search Console</text>
    </svg>