<svg xmlns="http://www.w3.org/2000/svg" viewBox="0 0 240 80" width="240" height="80">
      <!-- Icon/Text: Moz (Spelled as a path) -->
      <g transform="translate(60, 20) scale(2.0, 1.8)">
        <path fill="#00A8E8" d="M0 24h3.18v-5.263h.034L5.67 24h3.696l2.339-5.187h.035V24h3.18V12h-4.32l-3.08 7.07h-.034L4.32 12H0zm15.707-12c-4.57 0-8.293 3.723-8.293 8.293 0 4.57 3.723 8.293 8.293 8.293 4.57 0 8.293-3.723 8.293-8.293 0-4.57-3.723-8.293-8.293-8.293zm0 13.568c-2.909 0-5.275-2.366-5.275-5.275s2.366-5.275 5.275-5.275 5.275 2.366 5.275 5.275-2.366 5.275-5.275 5.275zM24 12v3.18h5.263v.034L24 17.67v3.696l5.187 2.339v.035H24v3.18h12v-4.32l-7.07-3.08v-.034l7.07-3.081V12z"/>
      </g>
    </svg>